<?xml version="1.0" standalone="no"?>
<!DOCTYPE svg PUBLIC "-//W3C//DTD SVG 20010904//EN"
 "http://www.w3.org/TR/2001/REC-SVG-20010904/DTD/svg10.dtd">
<svg version="1.0" xmlns="http://www.w3.org/2000/svg"
 width="256.000000pt" height="256.000000pt" viewBox="0 0 256.000000 256.000000"
 preserveAspectRatio="xMidYMid meet">
<metadata>
Created by potrace 1.11, written by Peter Selinger 2001-2013
</metadata>
<g transform="translate(0.000000,256.000000) scale(0.100000,-0.100000)"
fill="#000000" stroke="none">
<path d="M1110 2548 c-30 -4 -77 -13 -105 -20 -27 -6 -51 -11 -52 -10 -2 1
-42 -12 -90 -29 -439 -154 -760 -532 -843 -991 -22 -122 -20 -347 5 -463 112
-538 546 -950 1077 -1022 68 -9 300 -9 358 0 511 81 918 439 1051 924 49 177
59 427 25 588 -111 518 -503 910 -1014 1012 -87 17 -329 24 -412 11z"/>
</g>
</svg>
